# xmcd
#
# Track frame offsets: 
#        150
#        17390
#        52400
#        73249
#        87222
#        101718
#        118014
#        140871
#        158617
#        190743
#        206273
#        219865
#        237523
#        258261
#        274489
#        292462
#        308981
#        325694
#
# Disc length: 4566 seconds
#
# Revision: 3
# Processed by: cddbd v1.5.2PL0 Copyright (c) Steve Scherf et al.
# Submitted via: ExactAudioCopy v1.0b4
#
DISCID=1811d412
DTITLE=Peter Green - A Rock Legend
DYEAR=1991
DGENRE=Blues Rock
TTITLE0=In the Skies
TTITLE1=Fool No More
TTITLE2=Just For You
TTITLE3=Born On The Wild Side 
TTITLE4=Shining Star
TTITLE5=Indian Lover
TTITLE6=Carry My Love
TTITLE7=Corner of My Mind
TTITLE8=Little Dreamer
TTITLE9=Momma Don'tcha Cry
TTITLE10=Born Under A Bad Sign
TTITLE11=Walkin' the Road
TTITLE12=Loser Two Times
TTITLE13=What Am I Doing Here
TTITLE14=Time For Me To Go
TTITLE15=It's Gonna Be Me
TTITLE16=You Won't See Me Anymore
TTITLE17=Bad Bad Feeling
EXTD=
EXTT0=
EXTT1=
EXTT2=
EXTT3=
EXTT4=
EXTT5=
EXTT6=
EXTT7=
EXTT8=
EXTT9=
EXTT10=
EXTT11=
EXTT12=
EXTT13=
EXTT14=
EXTT15=
EXTT16=
EXTT17=
PLAYORDER=
